# xmcd
#
# Track frame offsets: 
#        150
#        18557
#        40921
#        62267
#        87838
#        109902
#        129449
#        151618
#        172637
#        188194
#        208733
#        236975
#        267096
#
# Disc length: 3910 seconds
#
# Revision: 0
# Processed by: cddbd v1.5.2PL0 Copyright (c) Steve Scherf et al.
# Submitted via: ExactAudioCopy v0.95b4
#
DISCID=a10f440d
DTITLE=Blind Otis and the Lost Highway - Fools Parade
DYEAR=1996
DGENRE=Blues
TTITLE0=Dulldown
TTITLE1=Dirt
TTITLE2=Synesthesia (28 Candles)
TTITLE3=Giselle
TTITLE4=Tomato Boogie (the big bad butt bumpin)
TTITLE5=Roamin Eyes
TTITLE6=Harvest Moon
TTITLE7=Guitars and Cadillacs
TTITLE8=Fools Lament
TTITLE9=Ode to Brisco
TTITLE10=Lady Strange
TTITLE11=Dark Eyes
TTITLE12=My Sweet Anodyne
EXTD=
EXTT0=
EXTT1=
EXTT2=
EXTT3=
EXTT4=
EXTT5=
EXTT6=
EXTT7=
EXTT8=
EXTT9=
EXTT10=
EXTT11=
EXTT12=
PLAYORDER=
